<?xml version="1.0" encoding="UTF-8" standalone="no"?>
<svg
   viewBox="0 0 793.7007874015749 1122.5196850393702"
   width="793.7007874015749"
   height="1122.5196850393702"
   version="1.1"
   id="svg71"
   sodipodi:docname="dao-choc-ble-additional-wall.svg"
   inkscape:version="1.1.1 (3bf5ae0d25, 2021-09-20)"
   xmlns:inkscape="http://www.inkscape.org/namespaces/inkscape"
   xmlns:sodipodi="http://sodipodi.sourceforge.net/DTD/sodipodi-0.dtd"
   xmlns="http://www.w3.org/2000/svg"
   xmlns:svg="http://www.w3.org/2000/svg">
  <sodipodi:namedview
     id="namedview73"
     pagecolor="#ffffff"
     bordercolor="#666666"
     borderopacity="1.0"
     inkscape:pageshadow="2"
     inkscape:pageopacity="0.0"
     inkscape:pagecheckerboard="0"
     showgrid="false"
     inkscape:zoom="2.0462174"
     inkscape:cx="353.09054"
     inkscape:cy="1197.5756"
     inkscape:window-width="2560"
     inkscape:window-height="1351"
     inkscape:window-x="-9"
     inkscape:window-y="-9"
     inkscape:window-maximized="1"
     inkscape:current-layer="g69" />
  <desc
     id="desc41">dao-choc-ble-bottom.dxf - scale = 1.0, origin = (0.0, 0.0), method = manual</desc>
  <defs
     id="defs55">
    <marker
       id="DistanceX"
       orient="auto"
       refX="0.0"
       refY="0.0"
       style="overflow:visible">
      <path
         d="M 3,-3 L -3,3 M 0,-5 L  0,5"
         style="stroke:#000000; stroke-width:0.5"
         id="path43" />
    </marker>
    <pattern
       id="Hatch"
       patternUnits="userSpaceOnUse"
       width="8"
       height="8"
       x="0"
       y="0">
      <path
         d="M8 4 l-4,4"
         stroke="#000000"
         stroke-width="0.25"
         linecap="square"
         id="path46" />
      <path
         d="M6 2 l-4,4"
         stroke="#000000"
         stroke-width="0.25"
         linecap="square"
         id="path48" />
      <path
         d="M4 0 l-4,4"
         stroke="#000000"
         stroke-width="0.25"
         linecap="square"
         id="path50" />
    </pattern>
    <symbol
       id="*MODEL_SPACE" />
    <symbol
       id="*PAPER_SPACE" />
    <marker
       id="DistanceX-4"
       orient="auto"
       refX="0.0"
       refY="0.0"
       style="overflow:visible">
      <path
         d="M 3,-3 L -3,3 M 0,-5 L  0,5"
         style="stroke:#000000; stroke-width:0.5"
         id="path395" />
    </marker>
    <pattern
       id="Hatch-6"
       patternUnits="userSpaceOnUse"
       width="8"
       height="8"
       x="0"
       y="0">
      <path
         d="M8 4 l-4,4"
         stroke="#000000"
         stroke-width="0.25"
         linecap="square"
         id="path398" />
      <path
         d="M6 2 l-4,4"
         stroke="#000000"
         stroke-width="0.25"
         linecap="square"
         id="path400" />
      <path
         d="M4 0 l-4,4"
         stroke="#000000"
         stroke-width="0.25"
         linecap="square"
         id="path402" />
    </pattern>
    <symbol
       id="*MODEL_SPACE-0" />
    <symbol
       id="*PAPER_SPACE-3" />
  </defs>
  <g
     inkscape:groupmode="layer"
     inkscape:label="0"
     id="g69">
    <path
       d="m 153.67131,1093.67 v -7.1261 c 2e-5,-1.5742 1.27621,-2.8504 2.85045,-2.8504 h 48.45748 c 33.38575,0 66.75557,1.4582 100.01407,4.3703 1.47223,0.1289 2.60176,1.3616 2.6018,2.8395 v 139.2825 c -2e-5,1.0184 0.54328,1.9594 1.42522,2.4686 l 49.15035,28.377 c 1.3633,0.7871 1.83042,2.5304 1.04334,3.8937 l -35.63051,61.7139 c -0.78714,1.3633 -2.53044,1.8304 -3.89378,1.0433 l -18.51415,-10.6891 c -14.39651,-8.1681 -29.7743,-14.4701 -45.76254,-18.7542 -16.44892,-4.4075 -33.40463,-6.6397 -50.4338,-6.6397 h -24.5267 c -0.72422,0 -1.42129,-0.2757 -1.94962,-0.771 l -24.00926,-22.5104 c -0.52833,-0.4953 -1.22539,-0.771 -1.94961,-0.771 H 2.5979527 c -1.5742391,0 -2.85041839,-1.2762 -2.85044109,-2.8504 l 0,-139.6717 c 2.27e-5,-1.5742 1.27620199,-2.8504 2.85044109,-2.8504 H 48.205004 c 1.574239,0 2.850418,-1.2762 2.850441,-2.8504 v -0.7126 c -3.3e-5,-1.5743 1.276163,-2.8505 2.850441,-2.8505 h 45.607048 c 1.574276,0 2.850476,-1.2762 2.850446,-2.8505 v -13.5395 c -3e-5,-1.5743 1.27616,-2.8505 2.85044,-2.8505 h 45.60705 c 1.57424,0 2.85042,-1.2762 2.85044,-2.8504 z"
       style="fill:none;stroke:#000000;stroke-width:0.754179"
       id="path453"
       sodipodi:nodetypes="sssssccscccscssssscsccssssssccsss" />
  </g>
</svg>
