<?xml version="1.0" encoding="UTF-8" standalone="no"?>
<svg
   viewBox="0 0 793.7007874015749 1122.5196850393702"
   width="793.7007874015749"
   height="1122.5196850393702"
   version="1.1"
   id="svg71"
   sodipodi:docname="dao-choc-ble-bottom.svg"
   inkscape:version="1.1.1 (c3084ef, 2021-09-22)"
   xmlns:inkscape="http://www.inkscape.org/namespaces/inkscape"
   xmlns:sodipodi="http://sodipodi.sourceforge.net/DTD/sodipodi-0.dtd"
   xmlns="http://www.w3.org/2000/svg"
   xmlns:svg="http://www.w3.org/2000/svg">
  <sodipodi:namedview
     id="namedview73"
     pagecolor="#ffffff"
     bordercolor="#666666"
     borderopacity="1.0"
     inkscape:pageshadow="2"
     inkscape:pageopacity="0.0"
     inkscape:pagecheckerboard="0"
     showgrid="false"
     inkscape:zoom="1.7469907"
     inkscape:cx="157.12734"
     inkscape:cy="1220.9567"
     inkscape:window-width="1312"
     inkscape:window-height="766"
     inkscape:window-x="0"
     inkscape:window-y="25"
     inkscape:window-maximized="0"
     inkscape:current-layer="g69" />
  <desc
     id="desc41">dao-choc-ble-bottom.dxf - scale = 1.0, origin = (0.0, 0.0), method = manual</desc>
  <defs
     id="defs55">
    <marker
       id="DistanceX"
       orient="auto"
       refX="0.0"
       refY="0.0"
       style="overflow:visible">
      <path
         d="M 3,-3 L -3,3 M 0,-5 L  0,5"
         style="stroke:#000000; stroke-width:0.5"
         id="path43" />
    </marker>
    <pattern
       id="Hatch"
       patternUnits="userSpaceOnUse"
       width="8"
       height="8"
       x="0"
       y="0">
      <path
         d="M8 4 l-4,4"
         stroke="#000000"
         stroke-width="0.25"
         linecap="square"
         id="path46" />
      <path
         d="M6 2 l-4,4"
         stroke="#000000"
         stroke-width="0.25"
         linecap="square"
         id="path48" />
      <path
         d="M4 0 l-4,4"
         stroke="#000000"
         stroke-width="0.25"
         linecap="square"
         id="path50" />
    </pattern>
    <symbol
       id="*MODEL_SPACE" />
    <symbol
       id="*PAPER_SPACE" />
  </defs>
  <g
     inkscape:groupmode="layer"
     inkscape:label="0"
     id="g69">
    <path
       d="m 153.53146,1093.4615 v -7.1319 a 2.8527498,2.8527498 0 0 1 2.85275,-2.8527 h 48.49673 a 1147.5184,1147.5184 0 0 1 168.73169,12.473 2.8527498,2.8527498 0 0 1 2.43328,2.8217 v 136.2118 a 2.8527498,2.8527498 0 0 1 -0.3822,1.4264 l -52.08244,90.2095 a 2.8527498,2.8527498 0 0 1 -3.89693,1.044 l -18.52915,-10.6977 a 195.18114,195.18114 0 0 0 -45.7996,-18.7693 195.01905,195.01905 0 0 0 -50.47465,-6.6451 h -24.54656 a 2.8527498,2.8527498 0 0 1 -1.9512,-0.7717 l -24.02871,-22.5286 a 2.8527498,2.8527498 0 0 0 -1.95119,-0.7717 H 2.335733 a 2.8527498,2.8527498 0 0 1 -2.85274963,-2.8527 v -52.7759 a 2.8527498,2.8527498 0 0 0 -2.85274967,-2.8528 H -49.013758 a 2.8527498,2.8527498 0 0 1 -2.852749,-2.8527 v -42.7912 a 2.8527498,2.8527498 0 0 1 2.852749,-2.8527 h 45.6439917 a 2.8527498,2.8527498 0 0 0 2.85274967,-2.8528 v -32.8066 a 2.8527498,2.8527498 0 0 1 2.85274963,-2.8527 h 45.643989 a 2.8527498,2.8527498 0 0 0 2.85275,-2.8529 v -0.7131 a 2.8527498,2.8527498 0 0 1 2.85275,-2.8528 h 45.643999 a 2.8527498,2.8527498 0 0 0 2.852739,-2.8527 v -13.5505 a 2.8527498,2.8527498 0 0 1 2.85275,-2.8528 h 45.64399 a 2.8527498,2.8527498 0 0 0 2.85276,-2.8528 z"
       style="fill:none;stroke:#000000;stroke-width:0.754789"
       id="path57" />
  </g>
</svg>
