  0
SECTION
  2
HEADER
  9
$ACADVER
  1
AC1009
  9
$INSBASE
 10
0.0
 20
0.0
 30
0.0
  9
$EXTMIN
 10
0.0
 20
0.0
 30
0.0
  9
$EXTMAX
 10
0.0
 20
0.0
 30
0.0
  0
ENDSEC
  0
SECTION
  2
TABLES
  0
TABLE
  2
VPORT
 70
0
  0
ENDTAB
  0
TABLE
  2
LTYPE
 70
1
  0
LTYPE
  2
CONTINUOUS
 70
0
  3
Solid line
 72
65
 73
0
 40
0.0
  0
ENDTAB
  0
TABLE
  2
LAYER
 70
1
  0
LAYER
  2
0
 70
64
 62
7
  6
continuous
  0
ENDTAB
  0
TABLE
  2
STYLE
 70
1
  0
STYLE
  2
STANDARD
 70
0
 40
0
 41
1.0
 50
0.0
 71
0
 42
1
 3
ARIAL.TTF
 4

  0
ENDTAB
  0
TABLE
  2
VIEW
 70
0
  0
ENDTAB
  0
ENDSEC
  0
SECTION
  2
BLOCKS
  0
ENDSEC
  0
SECTION
  2
ENTITIES
  0
LINE
  8
0
 62
0
 10
54.00000000000002
 20
9.999999999999801
 30
0.0
 11
54.0
 21
12.499999999999796
 31
0.0
  0
ARC
  8
0
 62
0
 10
55.00000000000001
 20
12.499999999999792
 30
0.0
 40
1.000000000000007
 50
90.00000000000041
 51
180.0
  0
LINE
  8
0
 62
0
 10
55.0
 20
13.499999999999801
 30
0.0
 11
71.99999999999991
 21
13.499999999999934
 31
0.0
  0
ARC
  8
0
 62
0
 10
72.00000000000009
 20
-388.75000000102426
 30
0.0
 40
402.2500000010242
 50
81.54454215423281
 51
90.00000000000003
  0
ARC
  8
0
 62
0
 10
131.0000000000011
 20
8.138602129122278
 30
0.0
 40
1.0000000000000446
 50
0.0
 51
81.54454215423397
  0
LINE
  8
0
 62
0
 10
132.00000000000117
 20
8.138602129122319
 30
0.0
 11
132.00000000000114
 21
-39.608941703054775
 31
0.0
  0
ARC
  8
0
 62
0
 10
131.00000000000128
 20
-39.60894170305475
 30
0.0
 40
0.9999999999998579
 50
-30.00000000000789
 51
-0.0
  0
LINE
  8
0
 62
0
 10
131.86602540378553
 20
-40.108941703054796
 30
0.0
 11
113.60909673753838
 21
-71.73086974315275
 31
0.0
  0
ARC
  8
0
 62
0
 10
112.74307133375396
 20
-71.23086974315272
 30
0.0
 40
0.9999999999999978
 50
-120.00000000000014
 51
-30.00000000000195
  0
LINE
  8
0
 62
0
 10
112.24307133375396
 20
-72.09689514693716
 30
0.0
 11
105.74788080537078
 21
-68.34689514693693
 31
0.0
  0
ARC
  8
0
 62
0
 10
71.98529411764893
 20
-127.85482244972223
 30
0.0
 40
68.41860618077156
 50
60.431034108500675
 51
75.0000000000001
  0
ARC
  8
0
 62
0
 10
71.99999999999982
 20
-127.79993934961783
 30
0.0
 40
68.36178701452647
 50
74.99999999999994
 51
89.99999999999983
  0
LINE
  8
0
 62
0
 10
72.00000000000001
 20
-59.43815233509136
 30
0.0
 11
63.395469783864584
 21
-59.43815233509135
 31
0.0
  0
ARC
  8
0
 62
0
 10
63.39546978386457
 20
-58.43815233509134
 30
0.0
 40
1.0000000000000142
 50
-133.15459992622849
 51
-89.99999999999919
  0
LINE
  8
0
 62
0
 10
62.7115005134986
 20
-59.167663155569734
 30
0.0
 11
54.288499486501465
 21
-51.270489179521654
 31
0.0
  0
ARC
  8
0
 62
0
 10
53.60453021613549
 20
-51.999999999999986
 30
0.0
 40
0.9999999999999685
 50
46.845400073768715
 51
90.00000000000041
  0
LINE
  8
0
 62
0
 10
53.60453021613548
 20
-51.00000000000002
 30
0.0
 11
0.9999999999999877
 21
-51.00000000000002
 31
0.0
  0
ARC
  8
0
 62
0
 10
0.999999999999986
 20
-50.00000000000003
 30
0.0
 40
0.9999999999999929
 50
-180.0
 51
-89.99999999999991
  0
LINE
  8
0
 62
0
 10
-8.881784197001252e-15
 20
-50.00000000000003
 30
0.0
 11
-1.1102230246251565e-15
 21
-31.500000000000004
 31
0.0
  0
LINE
  8
0
 62
0
 10
8.881784197001252e-15
 20
-12.5
 30
0.0
 11
0.0
 21
-1.000000000000001
 31
0.0
  0
ARC
  8
0
 62
0
 10
1.0
 20
-1.0
 30
0.0
 40
1.0
 50
90.0000000000002
 51
-180.0
  0
LINE
  8
0
 62
0
 10
0.9999999999999964
 20
0.0
 30
0.0
 11
17.000000000000007
 21
-1.3877787807814457e-15
 31
0.0
  0
ARC
  8
0
 62
0
 10
17.000000000000004
 20
1.000000000000004
 30
0.0
 40
1.0000000000000053
 50
-89.9999999999998
 51
-0.0
  0
LINE
  8
0
 62
0
 10
18.000000000000007
 20
0.9999999999999887
 30
0.0
 11
18.00000000000001
 21
1.249999999999996
 31
0.0
  0
ARC
  8
0
 62
0
 10
19.00000000000001
 20
1.2499999999999853
 30
0.0
 40
1.0
 50
89.99999999999919
 51
180.0
  0
LINE
  8
0
 62
0
 10
19.000000000000025
 20
2.2499999999999867
 30
0.0
 11
35.00000000000001
 21
2.249999999999803
 31
0.0
  0
ARC
  8
0
 62
0
 10
35.000000000000036
 20
3.2499999999998135
 30
0.0
 40
1.0000000000000107
 50
-90.00000000000163
 51
-0.0
  0
LINE
  8
0
 62
0
 10
36.00000000000004
 20
3.2499999999998055
 30
0.0
 11
36.00000000000002
 21
7.9999999999997895
 31
0.0
  0
ARC
  8
0
 62
0
 10
37.00000000000002
 20
7.99999999999979
 30
0.0
 40
1.0
 50
90.00000000000041
 51
-180.0
  0
LINE
  8
0
 62
0
 10
37.000000000000014
 20
8.999999999999792
 30
0.0
 11
53.00000000000003
 21
8.999999999999797
 31
0.0
  0
ARC
  8
0
 62
0
 10
53.00000000000003
 20
9.999999999999794
 30
0.0
 40
0.9999999999999964
 50
-90.0
 51
0.0
  0
CIRCLE
  8
0
 62
0
 10
104.95822499139851
 20
-47.07153971241007
 30
0.0
 40
1.0999999999999943
  0
CIRCLE
  8
0
 62
0
 10
70.0309238324547
 20
-39.969076167545644
 30
0.0
 40
1.0999999999999943
  0
CIRCLE
  8
0
 62
0
 10
90.29298780487808
 20
-10.250000000000137
 30
0.0
 40
1.0999999999999943
  0
CIRCLE
  8
0
 62
0
 10
17.70701219512187
 20
-34.0
 30
0.0
 40
1.1000000000000014
  0
CIRCLE
  8
0
 62
0
 10
17.70701219512185
 20
-17.00000000000001
 30
0.0
 40
1.1000000000000014
  0
POLYLINE
  8
0
 62
0
 70
0
 66
1
 10
0.0
 20
0.0
 30
0.0
  0
VERTEX
  8
0
 10
-1.1102230246251565e-15
 20
-31.500000000000004
 30
0.0
  0
VERTEX
  8
0
 10
8.88178419700125e-15
 20
-12.5
 30
0.0
  0
SEQEND
  8
0
  0
ENDSEC
  0
EOF
