  0
SECTION
  2
HEADER
  9
$ACADVER
  1
AC1009
  9
$INSBASE
 10
0.0
 20
0.0
 30
0.0
  9
$EXTMIN
 10
0.0
 20
0.0
 30
0.0
  9
$EXTMAX
 10
0.0
 20
0.0
 30
0.0
  0
ENDSEC
  0
SECTION
  2
TABLES
  0
TABLE
  2
VPORT
 70
0
  0
ENDTAB
  0
TABLE
  2
LTYPE
 70
1
  0
LTYPE
  2
CONTINUOUS
 70
0
  3
Solid line
 72
65
 73
0
 40
0.0
  0
ENDTAB
  0
TABLE
  2
LAYER
 70
1
  0
LAYER
  2
0
 70
64
 62
7
  6
continuous
  0
ENDTAB
  0
TABLE
  2
STYLE
 70
1
  0
STYLE
  2
STANDARD
 70
0
 40
0
 41
1.0
 50
0.0
 71
0
 42
1
 3
ARIAL.TTF
 4

  0
ENDTAB
  0
TABLE
  2
VIEW
 70
0
  0
ENDTAB
  0
ENDSEC
  0
SECTION
  2
BLOCKS
  0
ENDSEC
  0
SECTION
  2
ENTITIES
  0
LINE
  8
0
 62
0
 10
2.0500000000000007
 20
-32.45000000000001
 30
0.0
 11
15.950000000000006
 21
-32.45000000000001
 31
0.0
  0
LINE
  8
0
 62
0
 10
15.950000000000006
 20
-32.45000000000001
 30
0.0
 11
15.950000000000006
 21
-18.550000000000004
 31
0.0
  0
LINE
  8
0
 62
0
 10
15.950000000000006
 20
-18.550000000000004
 30
0.0
 11
2.0500000000000007
 21
-18.550000000000004
 31
0.0
  0
LINE
  8
0
 62
0
 10
2.0500000000000007
 20
-18.550000000000004
 30
0.0
 11
2.0500000000000007
 21
-32.45000000000001
 31
0.0
  0
LINE
  8
0
 62
0
 10
74.05000000000014
 20
-40.450000000000166
 30
0.0
 11
87.95000000000014
 21
-40.450000000000166
 31
0.0
  0
LINE
  8
0
 62
0
 10
87.95000000000014
 20
-40.450000000000166
 30
0.0
 11
87.95000000000014
 21
-26.55000000000016
 31
0.0
  0
LINE
  8
0
 62
0
 10
87.95000000000014
 20
-26.55000000000016
 30
0.0
 11
74.05000000000014
 21
-26.55000000000016
 31
0.0
  0
LINE
  8
0
 62
0
 10
74.05000000000014
 20
-26.55000000000016
 30
0.0
 11
74.05000000000014
 21
-40.450000000000166
 31
0.0
  0
LINE
  8
0
 62
0
 10
92.04999999999993
 20
-8.700000000000117
 30
0.0
 11
105.94999999999993
 21
-8.700000000000117
 31
0.0
  0
LINE
  8
0
 62
0
 10
105.94999999999993
 20
-8.700000000000117
 30
0.0
 11
105.94999999999993
 21
5.199999999999889
 31
0.0
  0
LINE
  8
0
 62
0
 10
105.94999999999993
 20
5.199999999999889
 30
0.0
 11
92.04999999999993
 21
5.199999999999889
 31
0.0
  0
LINE
  8
0
 62
0
 10
92.04999999999993
 20
5.199999999999889
 30
0.0
 11
92.04999999999993
 21
-8.700000000000117
 31
0.0
  0
LINE
  8
0
 62
0
 10
74.05000000000014
 20
-9.55000000000016
 30
0.0
 11
74.05000000000014
 21
-23.450000000000166
 31
0.0
  0
LINE
  8
0
 62
0
 10
74.05000000000014
 20
-23.450000000000166
 30
0.0
 11
87.95000000000014
 21
-23.450000000000166
 31
0.0
  0
LINE
  8
0
 62
0
 10
87.95000000000014
 20
-23.450000000000166
 30
0.0
 11
87.95000000000014
 21
-9.55000000000016
 31
0.0
  0
LINE
  8
0
 62
0
 10
87.95000000000014
 20
-9.55000000000016
 30
0.0
 11
74.05000000000014
 21
-9.55000000000016
 31
0.0
  0
LINE
  8
0
 62
0
 10
92.04999999999995
 20
-42.70000000000012
 30
0.0
 11
105.94999999999996
 21
-42.70000000000012
 31
0.0
  0
LINE
  8
0
 62
0
 10
105.94999999999996
 20
-42.70000000000012
 30
0.0
 11
105.94999999999996
 21
-28.800000000000114
 31
0.0
  0
LINE
  8
0
 62
0
 10
105.94999999999996
 20
-28.800000000000114
 30
0.0
 11
92.04999999999995
 21
-28.800000000000114
 31
0.0
  0
LINE
  8
0
 62
0
 10
92.04999999999995
 20
-28.800000000000114
 30
0.0
 11
92.04999999999995
 21
-42.70000000000012
 31
0.0
  0
LINE
  8
0
 62
0
 10
20.04999999999985
 20
-47.20000000000012
 30
0.0
 11
33.94999999999986
 21
-47.20000000000012
 31
0.0
  0
LINE
  8
0
 62
0
 10
33.94999999999986
 20
-47.20000000000012
 30
0.0
 11
33.94999999999986
 21
-33.30000000000011
 31
0.0
  0
LINE
  8
0
 62
0
 10
33.94999999999986
 20
-33.30000000000011
 30
0.0
 11
20.04999999999985
 21
-33.30000000000011
 31
0.0
  0
LINE
  8
0
 62
0
 10
20.04999999999985
 20
-33.30000000000011
 30
0.0
 11
20.04999999999985
 21
-47.20000000000012
 31
0.0
  0
LINE
  8
0
 62
0
 10
103.00400424906925
 20
-59.199428752148876
 30
0.0
 11
115.04175736167296
 21
-66.14942875214888
 31
0.0
  0
LINE
  8
0
 62
0
 10
115.04175736167296
 20
-66.14942875214888
 30
0.0
 11
121.99175736167297
 21
-54.111675639545176
 31
0.0
  0
LINE
  8
0
 62
0
 10
121.99175736167297
 20
-54.111675639545176
 30
0.0
 11
109.95400424906926
 21
-47.16167563954517
 31
0.0
  0
LINE
  8
0
 62
0
 10
109.95400424906926
 20
-47.16167563954517
 30
0.0
 11
103.00400424906925
 21
-59.199428752148876
 31
0.0
  0
LINE
  8
0
 62
0
 10
65.05000000000004
 20
-57.888152335091085
 30
0.0
 11
78.95000000000005
 21
-57.888152335091085
 31
0.0
  0
LINE
  8
0
 62
0
 10
78.95000000000005
 20
-57.888152335091085
 30
0.0
 11
78.95000000000005
 21
-43.98815233509108
 31
0.0
  0
LINE
  8
0
 62
0
 10
78.95000000000005
 20
-43.98815233509108
 30
0.0
 11
65.05000000000004
 21
-43.98815233509108
 31
0.0
  0
LINE
  8
0
 62
0
 10
65.05000000000004
 20
-43.98815233509108
 30
0.0
 11
65.05000000000004
 21
-57.888152335091085
 31
0.0
  0
LINE
  8
0
 62
0
 10
38.050000000000026
 20
-23.45000000000021
 30
0.0
 11
51.95000000000004
 21
-23.45000000000021
 31
0.0
  0
LINE
  8
0
 62
0
 10
51.95000000000004
 20
-23.45000000000021
 30
0.0
 11
51.95000000000004
 21
-9.550000000000205
 31
0.0
  0
LINE
  8
0
 62
0
 10
51.95000000000004
 20
-9.550000000000205
 30
0.0
 11
38.050000000000026
 21
-9.550000000000205
 31
0.0
  0
LINE
  8
0
 62
0
 10
38.050000000000026
 20
-9.550000000000205
 30
0.0
 11
38.050000000000026
 21
-23.45000000000021
 31
0.0
  0
LINE
  8
0
 62
0
 10
2.0499999999999963
 20
-49.45
 30
0.0
 11
15.950000000000003
 21
-49.45
 31
0.0
  0
LINE
  8
0
 62
0
 10
15.950000000000003
 20
-49.45
 30
0.0
 11
15.950000000000003
 21
-35.55
 31
0.0
  0
LINE
  8
0
 62
0
 10
15.950000000000003
 20
-35.55
 30
0.0
 11
2.0499999999999963
 21
-35.55
 31
0.0
  0
LINE
  8
0
 62
0
 10
2.0499999999999963
 20
-35.55
 30
0.0
 11
2.0499999999999963
 21
-49.45
 31
0.0
  0
LINE
  8
0
 62
0
 10
38.05000000000004
 20
-40.450000000000216
 30
0.0
 11
51.95000000000004
 21
-40.450000000000216
 31
0.0
  0
LINE
  8
0
 62
0
 10
51.95000000000004
 20
-40.450000000000216
 30
0.0
 11
51.95000000000004
 21
-26.550000000000207
 31
0.0
  0
LINE
  8
0
 62
0
 10
51.95000000000004
 20
-26.550000000000207
 30
0.0
 11
38.05000000000004
 21
-26.550000000000207
 31
0.0
  0
LINE
  8
0
 62
0
 10
38.05000000000004
 20
-26.550000000000207
 30
0.0
 11
38.05000000000004
 21
-40.450000000000216
 31
0.0
  0
LINE
  8
0
 62
0
 10
56.050000000000026
 20
-18.950000000000202
 30
0.0
 11
69.95000000000003
 21
-18.950000000000202
 31
0.0
  0
LINE
  8
0
 62
0
 10
69.95000000000003
 20
-18.950000000000202
 30
0.0
 11
69.95000000000003
 21
-5.050000000000194
 31
0.0
  0
LINE
  8
0
 62
0
 10
69.95000000000003
 20
-5.050000000000194
 30
0.0
 11
56.050000000000026
 21
-5.050000000000194
 31
0.0
  0
LINE
  8
0
 62
0
 10
56.050000000000026
 20
-5.050000000000194
 30
0.0
 11
56.050000000000026
 21
-18.950000000000202
 31
0.0
  0
LINE
  8
0
 62
0
 10
74.0500000000001
 20
-6.450000000000156
 30
0.0
 11
87.9500000000001
 21
-6.450000000000156
 31
0.0
  0
LINE
  8
0
 62
0
 10
87.9500000000001
 20
-6.450000000000156
 30
0.0
 11
87.9500000000001
 21
7.44999999999985
 31
0.0
  0
LINE
  8
0
 62
0
 10
87.9500000000001
 20
7.44999999999985
 30
0.0
 11
74.0500000000001
 21
7.44999999999985
 31
0.0
  0
LINE
  8
0
 62
0
 10
74.0500000000001
 20
7.44999999999985
 30
0.0
 11
74.0500000000001
 21
-6.450000000000156
 31
0.0
  0
LINE
  8
0
 62
0
 10
2.0500000000000007
 20
-15.450000000000008
 30
0.0
 11
15.950000000000006
 21
-15.450000000000008
 31
0.0
  0
LINE
  8
0
 62
0
 10
15.950000000000006
 20
-15.450000000000008
 30
0.0
 11
15.950000000000006
 21
-1.5500000000000025
 31
0.0
  0
LINE
  8
0
 62
0
 10
15.950000000000006
 20
-1.5500000000000025
 30
0.0
 11
2.0500000000000007
 21
-1.5500000000000025
 31
0.0
  0
LINE
  8
0
 62
0
 10
2.0500000000000007
 20
-1.5500000000000025
 30
0.0
 11
2.0500000000000007
 21
-15.450000000000008
 31
0.0
  0
LINE
  8
0
 62
0
 10
56.050000000000026
 20
-35.9500000000002
 30
0.0
 11
69.95000000000003
 21
-35.9500000000002
 31
0.0
  0
LINE
  8
0
 62
0
 10
69.95000000000003
 20
-35.9500000000002
 30
0.0
 11
69.95000000000003
 21
-22.050000000000196
 31
0.0
  0
LINE
  8
0
 62
0
 10
69.95000000000003
 20
-22.050000000000196
 30
0.0
 11
56.050000000000026
 21
-22.050000000000196
 31
0.0
  0
LINE
  8
0
 62
0
 10
56.050000000000026
 20
-22.050000000000196
 30
0.0
 11
56.050000000000026
 21
-35.9500000000002
 31
0.0
  0
LINE
  8
0
 62
0
 10
92.04999999999997
 20
-25.700000000000117
 30
0.0
 11
105.94999999999997
 21
-25.700000000000117
 31
0.0
  0
LINE
  8
0
 62
0
 10
105.94999999999997
 20
-25.700000000000117
 30
0.0
 11
105.94999999999997
 21
-11.800000000000113
 31
0.0
  0
LINE
  8
0
 62
0
 10
105.94999999999997
 20
-11.800000000000113
 30
0.0
 11
92.04999999999997
 21
-11.800000000000113
 31
0.0
  0
LINE
  8
0
 62
0
 10
92.04999999999997
 20
-11.800000000000113
 30
0.0
 11
92.04999999999997
 21
-25.700000000000117
 31
0.0
  0
LINE
  8
0
 62
0
 10
20.049999999999834
 20
-30.20000000000012
 30
0.0
 11
33.94999999999984
 21
-30.20000000000012
 31
0.0
  0
LINE
  8
0
 62
0
 10
33.94999999999984
 20
-30.20000000000012
 30
0.0
 11
33.94999999999984
 21
-16.300000000000114
 31
0.0
  0
LINE
  8
0
 62
0
 10
33.94999999999984
 20
-16.300000000000114
 30
0.0
 11
20.049999999999834
 21
-16.300000000000114
 31
0.0
  0
LINE
  8
0
 62
0
 10
20.049999999999834
 20
-16.300000000000114
 30
0.0
 11
20.049999999999834
 21
-30.20000000000012
 31
0.0
  0
LINE
  8
0
 62
0
 10
38.050000000000026
 20
-6.450000000000209
 30
0.0
 11
51.95000000000004
 21
-6.450000000000209
 31
0.0
  0
LINE
  8
0
 62
0
 10
51.95000000000004
 20
-6.450000000000209
 30
0.0
 11
51.95000000000004
 21
7.449999999999797
 31
0.0
  0
LINE
  8
0
 62
0
 10
51.95000000000004
 20
7.449999999999797
 30
0.0
 11
38.050000000000026
 21
7.449999999999797
 31
0.0
  0
LINE
  8
0
 62
0
 10
38.050000000000026
 20
7.449999999999797
 30
0.0
 11
38.050000000000026
 21
-6.450000000000209
 31
0.0
  0
LINE
  8
0
 62
0
 10
56.050000000000004
 20
-1.9500000000001982
 30
0.0
 11
69.95000000000002
 21
-1.9500000000001982
 31
0.0
  0
LINE
  8
0
 62
0
 10
69.95000000000002
 20
-1.9500000000001982
 30
0.0
 11
69.95000000000002
 21
11.949999999999807
 31
0.0
  0
LINE
  8
0
 62
0
 10
69.95000000000002
 20
11.949999999999807
 30
0.0
 11
56.050000000000004
 21
11.949999999999807
 31
0.0
  0
LINE
  8
0
 62
0
 10
56.050000000000004
 20
11.949999999999807
 30
0.0
 11
56.050000000000004
 21
-1.9500000000001982
 31
0.0
  0
LINE
  8
0
 62
0
 10
20.05000000000003
 20
-13.20000000000011
 30
0.0
 11
33.95000000000004
 21
-13.20000000000011
 31
0.0
  0
LINE
  8
0
 62
0
 10
33.95000000000004
 20
-13.20000000000011
 30
0.0
 11
33.95000000000004
 21
0.6999999999998963
 31
0.0
  0
LINE
  8
0
 62
0
 10
33.95000000000004
 20
0.6999999999998963
 30
0.0
 11
20.05000000000003
 21
0.6999999999998963
 31
0.0
  0
LINE
  8
0
 62
0
 10
20.05000000000003
 20
0.6999999999998963
 30
0.0
 11
20.05000000000003
 21
-13.20000000000011
 31
0.0
  0
LINE
  8
0
 62
0
 10
83.38131746380121
 20
-58.47154634680319
 30
0.0
 11
96.80768644921926
 21
-62.069131073728215
 31
0.0
  0
LINE
  8
0
 62
0
 10
96.80768644921926
 20
-62.069131073728215
 30
0.0
 11
100.40527117614428
 21
-48.642762088310185
 31
0.0
  0
LINE
  8
0
 62
0
 10
100.40527117614428
 20
-48.642762088310185
 30
0.0
 11
86.97890219072625
 21
-45.04517736138516
 31
0.0
  0
LINE
  8
0
 62
0
 10
86.97890219072625
 20
-45.04517736138516
 30
0.0
 11
83.38131746380121
 21
-58.47154634680319
 31
0.0
  0
LINE
  8
0
 62
0
 10
54.00000000000002
 20
9.999999999999796
 30
0.0
 11
54.0
 21
12.499999999999796
 31
0.0
  0
ARC
  8
0
 62
0
 10
55.0
 20
12.499999999999801
 30
0.0
 40
1.0
 50
90.0
 51
-180.0
  0
LINE
  8
0
 62
0
 10
55.0
 20
13.499999999999801
 30
0.0
 11
72.00000000000003
 21
13.499999999999808
 31
0.0
  0
ARC
  8
0
 62
0
 10
71.99999999999653
 20
-388.75000000109645
 30
0.0
 40
402.2500000010963
 50
84.99587782176089
 51
89.9999999999995
  0
ARC
  8
0
 62
0
 10
107.00000000000216
 20
10.970605548429033
 30
0.0
 40
1.000000000000013
 50
-0.0
 51
84.99587782175885
  0
LINE
  8
0
 62
0
 10
108.00000000000217
 20
10.970605548428525
 30
0.0
 11
107.99999999997631
 21
-37.89289196475917
 31
0.0
  0
ARC
  8
0
 62
0
 10
108.99999999997632
 20
-37.892891964759706
 30
0.0
 40
1.0000000000000142
 50
180.0
 51
-120.00000000000226
  0
LINE
  8
0
 62
0
 10
108.49999999997628
 20
-38.75891736854414
 30
0.0
 11
125.74307133375484
 21
-48.714209244757775
 31
0.0
  0
ARC
  8
0
 62
0
 10
125.2430713337548
 20
-49.58023464854221
 30
0.0
 40
1.000000000000017
 50
-30.00000000000223
 51
59.99999999999774
  0
LINE
  8
0
 62
0
 10
126.10909673753923
 20
-50.08023464854225
 30
0.0
 11
113.6090967375384
 21
-71.73086974315277
 31
0.0
  0
ARC
  8
0
 62
0
 10
112.74307133375396
 20
-71.23086974315275
 30
0.0
 40
1.0000000000000029
 50
-120.00000000000055
 51
-30.00000000000083
  0
LINE
  8
0
 62
0
 10
112.24307133375396
 20
-72.09689514693717
 30
0.0
 11
105.74788080537078
 21
-68.34689514693696
 31
0.0
  0
ARC
  8
0
 62
0
 10
71.98529411764909
 20
-127.8548224497213
 30
0.0
 40
68.41860618077065
 50
60.4310341085004
 51
74.99999999999999
  0
ARC
  8
0
 62
0
 10
71.99999999999991
 20
-127.79993934961784
 30
0.0
 40
68.3617870145265
 50
74.99999999999999
 51
89.99999999999993
  0
LINE
  8
0
 62
0
 10
72.0
 20
-59.43815233509136
 30
0.0
 11
63.395469783864584
 21
-59.43815233509135
 31
0.0
  0
ARC
  8
0
 62
0
 10
63.39546978386457
 20
-58.43815233509134
 30
0.0
 40
1.0000000000000142
 50
-133.15459992622849
 51
-89.99999999999919
  0
LINE
  8
0
 62
0
 10
62.7115005134986
 20
-59.167663155569734
 30
0.0
 11
54.288499486501465
 21
-51.270489179521654
 31
0.0
  0
ARC
  8
0
 62
0
 10
53.60453021613549
 20
-51.999999999999986
 30
0.0
 40
0.9999999999999685
 50
46.845400073768715
 51
90.00000000000041
  0
LINE
  8
0
 62
0
 10
53.60453021613548
 20
-51.00000000000002
 30
0.0
 11
0.9999999999999966
 21
-51.00000000000002
 31
0.0
  0
ARC
  8
0
 62
0
 10
0.9999999999999678
 20
-50.00000000000004
 30
0.0
 40
0.9999999999999787
 50
180.0
 51
-89.99999999999835
  0
LINE
  8
0
 62
0
 10
-1.7763568394002505e-14
 20
-50.00000000000003
 30
0.0
 11
-1.1102230246251565e-15
 21
-31.500000000000004
 31
0.0
  0
LINE
  8
0
 62
0
 10
0.0
 20
-12.5
 30
0.0
 11
-2.7755575615628914e-16
 21
-1.0000000000000056
 31
0.0
  0
ARC
  8
0
 62
0
 10
1.0
 20
-1.0000000000000002
 30
0.0
 40
1.0000000000000002
 50
90.0000000000002
 51
-180.0
  0
LINE
  8
0
 62
0
 10
0.9999999999999964
 20
0.0
 30
0.0
 11
17.00000000000001
 21
-1.5265566588595902e-15
 31
0.0
  0
ARC
  8
0
 62
0
 10
17.000000000000007
 20
0.9999999999999972
 30
0.0
 40
0.9999999999999988
 50
-89.9999999999998
 51
-0.0
  0
LINE
  8
0
 62
0
 10
18.000000000000007
 20
0.9999999999999876
 30
0.0
 11
18.00000000000001
 21
1.2499999999999998
 31
0.0
  0
ARC
  8
0
 62
0
 10
19.000000000000014
 20
1.2499999999999818
 30
0.0
 40
1.0000000000000036
 50
89.99999999999959
 51
180.0
  0
LINE
  8
0
 62
0
 10
19.00000000000002
 20
2.2499999999999876
 30
0.0
 11
35.0
 21
2.249999999999803
 31
0.0
  0
ARC
  8
0
 62
0
 10
35.00000000000002
 20
3.249999999999816
 30
0.0
 40
1.0000000000000133
 50
-90.00000000000122
 51
-0.0
  0
LINE
  8
0
 62
0
 10
36.000000000000036
 20
3.2499999999998064
 30
0.0
 11
36.00000000000002
 21
7.999999999999786
 31
0.0
  0
ARC
  8
0
 62
0
 10
37.000000000000014
 20
7.999999999999795
 30
0.0
 40
0.9999999999999929
 50
89.99999999999959
 51
-180.0
  0
LINE
  8
0
 62
0
 10
37.00000000000002
 20
8.99999999999979
 30
0.0
 11
53.00000000000003
 21
8.999999999999797
 31
0.0
  0
ARC
  8
0
 62
0
 10
53.00000000000003
 20
9.999999999999792
 30
0.0
 40
0.9999999999999947
 50
-90.0
 51
0.0
  0
CIRCLE
  8
0
 62
0
 10
70.03092383245476
 20
-39.969076167545694
 30
0.0
 40
1.0999999999999943
  0
CIRCLE
  8
0
 62
0
 10
104.95822499139855
 20
-47.07153971241012
 30
0.0
 40
1.0999999999999943
  0
CIRCLE
  8
0
 62
0
 10
17.707012195121887
 20
-34.00000000000007
 30
0.0
 40
1.0999999999999979
  0
CIRCLE
  8
0
 62
0
 10
90.29298780487812
 20
-10.250000000000234
 30
0.0
 40
1.0999999999999943
  0
CIRCLE
  8
0
 62
0
 10
17.70701219512187
 20
-17.00000000000002
 30
0.0
 40
1.0999999999999979
  0
POLYLINE
  8
0
 62
0
 70
0
 66
1
 10
0.0
 20
0.0
 30
0.0
  0
VERTEX
  8
0
 10
-1.1102230246251565e-15
 20
-31.500000000000004
 30
0.0
  0
VERTEX
  8
0
 10
0.0
 20
-12.5
 30
0.0
  0
SEQEND
  8
0
  0
ENDSEC
  0
EOF
