0
SECTION
2
HEADER
9
$INSUNITS
70
4
9
$ACADVER
1
AC1014
9
$HANDSEED
5
FFFF
0
ENDSEC
0
SECTION
2
TABLES
0
TABLE
2
VPORT
5
8
100
AcDbSymbolTable
0
ENDTAB
0
TABLE
2
LTYPE
5
5
100
AcDbSymbolTable
0
LTYPE
5
14
100
AcDbSymbolTableRecord
100
AcDbLinetypeTableRecord
2
BYBLOCK
70
0
0
LTYPE
5
15
100
AcDbSymbolTableRecord
100
AcDbLinetypeTableRecord
2
BYLAYER
70
0
0
ENDTAB
0
TABLE
2
LAYER
5
2
100
AcDbSymbolTable
70
2
0
LAYER
5
50
100
AcDbSymbolTableRecord
100
AcDbLayerTableRecord
2
0
70
0
6
CONTINUOUS
0
ENDTAB
0
TABLE
2
STYLE
5
3
100
AcDbSymbolTable
70
1
0
STYLE
5
11
100
AcDbSymbolTableRecord
100
AcDbTextStyleTableRecord
2
STANDARD
70
0
0
ENDTAB
0
TABLE
2
VIEW
5
6
100
AcDbSymbolTable
70
0
0
ENDTAB
0
TABLE
2
UCS
5
7
100
AcDbSymbolTable
70
0
0
ENDTAB
0
TABLE
2
APPID
5
9
100
AcDbSymbolTable
70
2
0
APPID
5
12
100
AcDbSymbolTableRecord
100
AcDbRegAppTableRecord
2
ACAD
70
0
0
ENDTAB
0
TABLE
2
DIMSTYLE
5
A
100
AcDbSymbolTable
70
1
0
ENDTAB
0
TABLE
2
BLOCK_RECORD
5
1
100
AcDbSymbolTable
70
1
0
BLOCK_RECORD
5
1F
100
AcDbSymbolTableRecord
100
AcDbBlockTableRecord
2
*MODEL_SPACE
0
BLOCK_RECORD
5
1B
100
AcDbSymbolTableRecord
100
AcDbBlockTableRecord
2
*PAPER_SPACE
0
ENDTAB
0
ENDSEC
0
SECTION
2
BLOCKS
0
BLOCK
5
20
100
AcDbEntity
100
AcDbBlockBegin
2
*MODEL_SPACE
0
ENDBLK
5
21
100
AcDbEntity
100
AcDbBlockEnd
0
BLOCK
5
1C
100
AcDbEntity
100
AcDbBlockBegin
2
*PAPER_SPACE
0
ENDBLK
5
1D
100
AcDbEntity
100
AcDbBlockEnd
0
ENDSEC
0
SECTION
2
ENTITIES
0
LWPOLYLINE
5
100
100
AcDbEntity
8
0
100
AcDbPolyline
90
38
70
1
43
0.0
10
54.000000000000021
20
9.999999999999801
10
54
20
12.499999999999796
42
-0.41421356237309243
10
55
20
13.499999999999801
10
71.999999999999915
20
13.499999999999934
42
-0.036910643403591716
10
131.14704049844309
20
9.1277326017182965
42
-0.37162124300041094
10
132.00000000000117
20
8.1386021291223187
10
132.00000000000114
20
-39.608941703054775
42
-0.13165249758742101
10
131.86602540378553
20
-40.108941703054796
10
113.60909673753838
20
-71.730869743152752
42
-0.41421356237309154
10
112.24307133375396
20
-72.096895146937158
10
105.74788080537078
20
-68.34689514693693
42
0.063654872738794929
10
89.693332436601537
20
-61.767523741014074
42
0.065543462815237777
10
72.000000000000014
20
-59.43815233509136
10
63.395469783864584
20
-59.438152335091353
42
-0.19055490620573384
10
62.711500513498599
20
-59.167663155569734
10
54.288499486501465
20
-51.270489179521654
42
0.19055490620574619
10
53.60453021613548
20
-51.000000000000021
10
0.99999999999998768
20
-51.000000000000021
42
-0.41421356237309498
10
-8.8817841970012523e-15
20
-50.000000000000028
10
-1.1102230246251565e-15
20
-31.500000000000004
42
0.41421356237309548
10
-1.0000000000000053
20
-30.500000000000004
10
-16.999999999999996
20
-30.500000000000007
42
-0.41421356237309176
10
-18
20
-29.5
10
-17.999999999999993
20
-14.500000000000002
42
-0.4142135623730937
10
-16.999999999999993
20
-13.5
10
-0.99999999999999534
20
-13.5
42
0.41421356237309498
10
8.8817841970012523e-15
20
-12.5
10
0
20
-1.0000000000000011
42
-0.41421356237309426
10
0.99999999999999645
20
0
10
17.000000000000007
20
-1.3877787807814457e-15
42
0.41421356237308904
10
18.000000000000007
20
0.99999999999998868
10
18.000000000000011
20
1.249999999999996
42
-0.4142135623730957
10
19.000000000000025
20
2.2499999999999867
10
35.000000000000007
20
2.2499999999998028
42
0.41421356237309992
10
36.000000000000043
20
3.2499999999998055
10
36.000000000000021
20
7.9999999999997895
42
-0.41421356237309276
10
37.000000000000014
20
8.9999999999997922
10
53.000000000000028
20
8.9999999999997975
42
0.41421356237309631
0
CIRCLE
5
101
100
AcDbEntity
8
0
100
AcDbCircle
10
104.95822499139851
20
-47.071539712410072
30
0
40
1.1000000000000001
210
0
220
0
230
1
0
CIRCLE
5
102
100
AcDbEntity
8
0
100
AcDbCircle
10
70.030923832454704
20
-39.969076167545644
30
0
40
1.1000000000000001
210
0
220
0
230
1
0
CIRCLE
5
103
100
AcDbEntity
8
0
100
AcDbCircle
10
90.292987804878081
20
-10.250000000000137
30
0
40
1.1000000000000001
210
0
220
0
230
1
0
CIRCLE
5
104
100
AcDbEntity
8
0
100
AcDbCircle
10
17.70701219512187
20
-34
30
0
40
1.1000000000000001
210
0
220
0
230
1
0
CIRCLE
5
105
100
AcDbEntity
8
0
100
AcDbCircle
10
17.707012195121852
20
-17.000000000000011
30
0
40
1.1000000000000001
210
0
220
0
230
1
0
ENDSEC
0
SECTION
2
OBJECTS
0
DICTIONARY
5
C
100
AcDbDictionary
3
ACAD_GROUP
350
D
3
ACAD_MLINESTYLE
350
17
0
DICTIONARY
5
D
100
AcDbDictionary
0
DICTIONARY
5
1A
330
C
100
AcDbDictionary
0
DICTIONARY
5
17
100
AcDbDictionary
0
ENDSEC
0
EOF
