0
SECTION
2
HEADER
9
$INSUNITS
70
4
9
$ACADVER
1
AC1014
9
$HANDSEED
5
FFFF
0
ENDSEC
0
SECTION
2
TABLES
0
TABLE
2
VPORT
5
8
100
AcDbSymbolTable
0
ENDTAB
0
TABLE
2
LTYPE
5
5
100
AcDbSymbolTable
0
LTYPE
5
14
100
AcDbSymbolTableRecord
100
AcDbLinetypeTableRecord
2
BYBLOCK
70
0
0
LTYPE
5
15
100
AcDbSymbolTableRecord
100
AcDbLinetypeTableRecord
2
BYLAYER
70
0
0
ENDTAB
0
TABLE
2
LAYER
5
2
100
AcDbSymbolTable
70
2
0
LAYER
5
50
100
AcDbSymbolTableRecord
100
AcDbLayerTableRecord
2
0
70
0
6
CONTINUOUS
0
ENDTAB
0
TABLE
2
STYLE
5
3
100
AcDbSymbolTable
70
1
0
STYLE
5
11
100
AcDbSymbolTableRecord
100
AcDbTextStyleTableRecord
2
STANDARD
70
0
0
ENDTAB
0
TABLE
2
VIEW
5
6
100
AcDbSymbolTable
70
0
0
ENDTAB
0
TABLE
2
UCS
5
7
100
AcDbSymbolTable
70
0
0
ENDTAB
0
TABLE
2
APPID
5
9
100
AcDbSymbolTable
70
2
0
APPID
5
12
100
AcDbSymbolTableRecord
100
AcDbRegAppTableRecord
2
ACAD
70
0
0
ENDTAB
0
TABLE
2
DIMSTYLE
5
A
100
AcDbSymbolTable
70
1
0
ENDTAB
0
TABLE
2
BLOCK_RECORD
5
1
100
AcDbSymbolTable
70
1
0
BLOCK_RECORD
5
1F
100
AcDbSymbolTableRecord
100
AcDbBlockTableRecord
2
*MODEL_SPACE
0
BLOCK_RECORD
5
1B
100
AcDbSymbolTableRecord
100
AcDbBlockTableRecord
2
*PAPER_SPACE
0
ENDTAB
0
ENDSEC
0
SECTION
2
BLOCKS
0
BLOCK
5
20
100
AcDbEntity
100
AcDbBlockBegin
2
*MODEL_SPACE
0
ENDBLK
5
21
100
AcDbEntity
100
AcDbBlockEnd
0
BLOCK
5
1C
100
AcDbEntity
100
AcDbBlockBegin
2
*PAPER_SPACE
0
ENDBLK
5
1D
100
AcDbEntity
100
AcDbBlockEnd
0
ENDSEC
0
SECTION
2
ENTITIES
0
LWPOLYLINE
5
100
100
AcDbEntity
8
0
100
AcDbPolyline
90
4
70
1
43
0.0
10
2.0500000000000007
20
-32.45000000000001
10
15.950000000000006
20
-32.45000000000001
10
15.950000000000006
20
-18.550000000000004
10
2.0500000000000007
20
-18.550000000000004
0
LWPOLYLINE
5
101
100
AcDbEntity
8
0
100
AcDbPolyline
90
4
70
1
43
0.0
10
74.050000000000139
20
-40.450000000000166
10
87.950000000000145
20
-40.450000000000166
10
87.950000000000145
20
-26.550000000000161
10
74.050000000000139
20
-26.550000000000161
0
LWPOLYLINE
5
102
100
AcDbEntity
8
0
100
AcDbPolyline
90
4
70
1
43
0.0
10
92.049999999999926
20
-8.7000000000001165
10
105.94999999999993
20
-8.7000000000001165
10
105.94999999999993
20
5.1999999999998892
10
92.049999999999926
20
5.1999999999998892
0
LWPOLYLINE
5
103
100
AcDbEntity
8
0
100
AcDbPolyline
90
4
70
1
43
0.0
10
74.050000000000139
20
-9.5500000000001606
10
74.050000000000139
20
-23.450000000000166
10
87.950000000000145
20
-23.450000000000166
10
87.950000000000145
20
-9.5500000000001606
0
LWPOLYLINE
5
104
100
AcDbEntity
8
0
100
AcDbPolyline
90
4
70
1
43
0.0
10
92.049999999999955
20
-42.700000000000117
10
105.94999999999996
20
-42.700000000000117
10
105.94999999999996
20
-28.800000000000114
10
92.049999999999955
20
-28.800000000000114
0
LWPOLYLINE
5
105
100
AcDbEntity
8
0
100
AcDbPolyline
90
4
70
1
43
0.0
10
20.049999999999851
20
-47.200000000000117
10
33.949999999999861
20
-47.200000000000117
10
33.949999999999861
20
-33.300000000000111
10
20.049999999999851
20
-33.300000000000111
0
LWPOLYLINE
5
106
100
AcDbEntity
8
0
100
AcDbPolyline
90
4
70
1
43
0.0
10
103.00400424906925
20
-59.199428752148876
10
115.04175736167296
20
-66.149428752148879
10
121.99175736167297
20
-54.111675639545176
10
109.95400424906926
20
-47.161675639545173
0
LWPOLYLINE
5
107
100
AcDbEntity
8
0
100
AcDbPolyline
90
4
70
1
43
0.0
10
65.05000000000004
20
-57.888152335091085
10
78.950000000000045
20
-57.888152335091085
10
78.950000000000045
20
-43.98815233509108
10
65.05000000000004
20
-43.98815233509108
0
LWPOLYLINE
5
108
100
AcDbEntity
8
0
100
AcDbPolyline
90
4
70
1
43
0.0
10
38.050000000000026
20
-23.450000000000209
10
51.950000000000038
20
-23.450000000000209
10
51.950000000000038
20
-9.550000000000205
10
38.050000000000026
20
-9.550000000000205
0
LWPOLYLINE
5
109
100
AcDbEntity
8
0
100
AcDbPolyline
90
4
70
1
43
0.0
10
2.0499999999999963
20
-49.450000000000003
10
15.950000000000003
20
-49.450000000000003
10
15.950000000000003
20
-35.549999999999997
10
2.0499999999999963
20
-35.549999999999997
0
LWPOLYLINE
5
110
100
AcDbEntity
8
0
100
AcDbPolyline
90
4
70
1
43
0.0
10
38.05000000000004
20
-40.450000000000216
10
51.950000000000038
20
-40.450000000000216
10
51.950000000000038
20
-26.550000000000207
10
38.05000000000004
20
-26.550000000000207
0
LWPOLYLINE
5
111
100
AcDbEntity
8
0
100
AcDbPolyline
90
4
70
1
43
0.0
10
56.050000000000026
20
-18.950000000000202
10
69.950000000000031
20
-18.950000000000202
10
69.950000000000031
20
-5.0500000000001943
10
56.050000000000026
20
-5.0500000000001943
0
LWPOLYLINE
5
112
100
AcDbEntity
8
0
100
AcDbPolyline
90
4
70
1
43
0.0
10
74.050000000000097
20
-6.4500000000001556
10
87.950000000000102
20
-6.4500000000001556
10
87.950000000000102
20
7.4499999999998501
10
74.050000000000097
20
7.4499999999998501
0
LWPOLYLINE
5
113
100
AcDbEntity
8
0
100
AcDbPolyline
90
4
70
1
43
0.0
10
2.0500000000000007
20
-15.450000000000008
10
15.950000000000006
20
-15.450000000000008
10
15.950000000000006
20
-1.5500000000000025
10
2.0500000000000007
20
-1.5500000000000025
0
LWPOLYLINE
5
114
100
AcDbEntity
8
0
100
AcDbPolyline
90
4
70
1
43
0.0
10
-15.949999999999989
20
-28.950000000000014
10
-2.0499999999999829
20
-28.950000000000014
10
-2.0499999999999829
20
-15.050000000000008
10
-15.949999999999989
20
-15.050000000000008
0
LWPOLYLINE
5
115
100
AcDbEntity
8
0
100
AcDbPolyline
90
4
70
1
43
0.0
10
56.050000000000026
20
-35.950000000000202
10
69.950000000000031
20
-35.950000000000202
10
69.950000000000031
20
-22.050000000000196
10
56.050000000000026
20
-22.050000000000196
0
LWPOLYLINE
5
116
100
AcDbEntity
8
0
100
AcDbPolyline
90
4
70
1
43
0.0
10
92.049999999999969
20
-25.700000000000117
10
105.94999999999997
20
-25.700000000000117
10
105.94999999999997
20
-11.800000000000113
10
92.049999999999969
20
-11.800000000000113
0
LWPOLYLINE
5
117
100
AcDbEntity
8
0
100
AcDbPolyline
90
4
70
1
43
0.0
10
20.049999999999834
20
-30.20000000000012
10
33.949999999999839
20
-30.20000000000012
10
33.949999999999839
20
-16.300000000000114
10
20.049999999999834
20
-16.300000000000114
0
LWPOLYLINE
5
118
100
AcDbEntity
8
0
100
AcDbPolyline
90
4
70
1
43
0.0
10
38.050000000000026
20
-6.4500000000002089
10
51.950000000000038
20
-6.4500000000002089
10
51.950000000000038
20
7.4499999999997968
10
38.050000000000026
20
7.4499999999997968
0
LWPOLYLINE
5
119
100
AcDbEntity
8
0
100
AcDbPolyline
90
4
70
1
43
0.0
10
56.050000000000004
20
-1.9500000000001982
10
69.950000000000017
20
-1.9500000000001982
10
69.950000000000017
20
11.949999999999807
10
56.050000000000004
20
11.949999999999807
0
LWPOLYLINE
5
120
100
AcDbEntity
8
0
100
AcDbPolyline
90
4
70
1
43
0.0
10
20.050000000000029
20
-13.200000000000109
10
33.950000000000038
20
-13.200000000000109
10
33.950000000000038
20
0.69999999999989626
10
20.050000000000029
20
0.69999999999989626
0
LWPOLYLINE
5
121
100
AcDbEntity
8
0
100
AcDbPolyline
90
4
70
1
43
0.0
10
83.38131746380121
20
-58.471546346803187
10
96.807686449219261
20
-62.069131073728215
10
100.40527117614428
20
-48.642762088310185
10
86.978902190726245
20
-45.045177361385157
0
LWPOLYLINE
5
122
100
AcDbEntity
8
0
100
AcDbPolyline
90
40
70
1
43
0.0
10
54.000000000000021
20
9.9999999999997957
10
54
20
12.499999999999796
42
-0.41421356237309764
10
55
20
13.499999999999801
10
72.000000000000028
20
13.499999999999808
42
-0.021838072588475241
10
107.08722741433219
20
11.966793973471868
42
-0.3888580255796118
10
108.00000000000217
20
10.970605548428525
10
107.99999999997631
20
-37.892891964759173
42
0.26794919243125498
10
108.49999999997628
20
-38.758917368544139
10
125.74307133375484
20
-48.714209244757775
42
-0.4142135623730937
10
126.10909673753923
20
-50.080234648542252
10
113.60909673753839
20
-71.730869743152766
42
-0.4142135623730902
10
112.24307133375396
20
-72.096895146937172
10
105.74788080537078
20
-68.346895146936959
42
0.06365487273879572
10
89.69333243660158
20
-61.767523741014053
42
0.065543462815237985
10
72
20
-59.43815233509136
10
63.395469783864584
20
-59.438152335091353
42
-0.19055490620573384
10
62.711500513498599
20
-59.167663155569734
10
54.288499486501465
20
-51.270489179521654
42
0.19055490620574619
10
53.60453021613548
20
-51.000000000000021
10
0.99999999999999656
20
-51.000000000000021
42
-0.41421356237310564
10
-1.7763568394002505e-14
20
-50.000000000000028
10
-1.1102230246251565e-15
20
-31.500000000000004
42
0.41421356237309492
10
-0.99999999999999645
20
-30.5
10
-16.999999999999993
20
-30.499999999999989
42
-0.41421356237309825
10
-17.999999999999989
20
-29.5
10
-17.999999999999993
20
-14.500000000000002
42
-0.4142135623730937
10
-16.999999999999993
20
-13.5
10
-0.99999999999999645
20
-13.5
42
0.41421356237309537
10
0
20
-12.5
10
-2.7755575615628914e-16
20
-1.0000000000000056
42
-0.41421356237309553
10
0.99999999999999645
20
0
10
17.000000000000011
20
-1.5265566588595902e-15
42
0.41421356237309154
10
18.000000000000007
20
0.99999999999998757
10
18.000000000000011
20
1.2499999999999998
42
-0.41421356237309115
10
19.000000000000021
20
2.2499999999999876
10
35
20
2.2499999999998028
42
0.41421356237309859
10
36.000000000000036
20
3.2499999999998064
10
36.000000000000021
20
7.9999999999997859
42
-0.41421356237309859
10
37.000000000000021
20
8.9999999999997904
10
53.000000000000028
20
8.9999999999997975
42
0.41421356237309598
0
CIRCLE
5
123
100
AcDbEntity
8
0
100
AcDbCircle
10
70.030923832454761
20
-39.969076167545694
30
0
40
1.0999999999999943
210
0
220
0
230
1
0
CIRCLE
5
124
100
AcDbEntity
8
0
100
AcDbCircle
10
104.95822499139855
20
-47.071539712410122
30
0
40
1.0999999999999943
210
0
220
0
230
1
0
CIRCLE
5
125
100
AcDbEntity
8
0
100
AcDbCircle
10
17.707012195121887
20
-34.000000000000071
30
0
40
1.0999999999999988
210
0
220
0
230
1
0
CIRCLE
5
126
100
AcDbEntity
8
0
100
AcDbCircle
10
90.292987804878123
20
-10.250000000000234
30
0
40
1.0999999999999943
210
0
220
0
230
1
0
CIRCLE
5
127
100
AcDbEntity
8
0
100
AcDbCircle
10
17.70701219512187
20
-17.000000000000021
30
0
40
1.0999999999999988
210
0
220
0
230
1
0
ENDSEC
0
SECTION
2
OBJECTS
0
DICTIONARY
5
C
100
AcDbDictionary
3
ACAD_GROUP
350
D
3
ACAD_MLINESTYLE
350
17
0
DICTIONARY
5
D
100
AcDbDictionary
0
DICTIONARY
5
1A
330
C
100
AcDbDictionary
0
DICTIONARY
5
17
100
AcDbDictionary
0
ENDSEC
0
EOF
